<svg width="97" height="24" viewBox="0 0 97 24" fill="none" xmlns="http://www.w3.org/2000/svg">
<path fill-rule="evenodd" clip-rule="evenodd" d="M23.4359 17.976C23.5154 19.032 23.8539 19.7999 24.4511 20.28C25.0483 20.76 25.9279 21 27.0905 21C27.6477 21 28.1177 20.94 28.4998 20.8199C28.882 20.7001 29.1925 20.5403 29.4314 20.34C29.6702 20.1401 29.8412 19.9043 29.9449 19.632C30.0483 19.3602 30.1002 19.0643 30.1002 18.7441C30.1002 18.2962 29.9329 17.8762 29.5985 17.4839C29.2642 17.0921 28.651 16.8083 27.7593 16.632L25.5379 16.224C24.662 16.0642 23.8898 15.8561 23.2209 15.6C22.5521 15.3442 21.9908 15.012 21.5369 14.604C21.0831 14.1961 20.7368 13.6961 20.4979 13.104C20.259 12.5122 20.1396 11.808 20.1396 10.992C20.1396 10.176 20.3027 9.45602 20.6292 8.83199C20.9555 8.20795 21.4093 7.68828 21.9908 7.27201C22.5719 6.85611 23.2687 6.53991 24.0807 6.32399C24.893 6.10807 25.7846 6 26.7561 6C27.9981 6 29.0332 6.14402 29.8613 6.43198C30.6892 6.72002 31.3579 7.10027 31.8678 7.57199C32.3772 8.04414 32.7553 8.59198 33.0024 9.21602C33.249 9.83998 33.4122 10.488 33.492 11.16L30.1241 11.5919C29.9487 10.6481 29.6105 9.96828 29.1088 9.55201C28.6072 9.13611 27.8466 8.92798 26.8277 8.92798C26.2224 8.92798 25.725 8.98008 25.3349 9.08393C24.9445 9.18822 24.6302 9.32394 24.3913 9.49197C24.1525 9.66001 23.9854 9.85613 23.8898 10.08C23.7942 10.3043 23.7464 10.536 23.7464 10.7759C23.7464 11.4161 23.9256 11.8961 24.2838 12.216C24.6421 12.5362 25.2512 12.784 26.1112 12.96L28.4521 13.416C30.2991 13.7842 31.6528 14.3801 32.5126 15.204C33.3726 16.0282 33.8026 17.2163 33.8026 18.7681C33.8026 19.5203 33.663 20.2121 33.3846 20.8439C33.1058 21.4763 32.6918 22.0283 32.1425 22.5C31.5931 22.9721 30.9041 23.34 30.0763 23.604C29.2481 23.868 28.2766 24 27.1621 24C24.8371 24 23.0574 23.5001 21.8236 22.5C20.5893 21.5003 19.9246 19.992 19.8291 17.976H23.4359Z" fill="#21201F"/>
<path fill-rule="evenodd" clip-rule="evenodd" d="M47.51 19.1155C47.3815 20.6088 46.8644 21.7961 45.9589 22.6776C45.053 23.5592 43.6943 24 41.8828 24C40.8247 24 39.9109 23.841 39.1414 23.5235C38.3719 23.2059 37.7425 22.7609 37.2537 22.1892C36.7645 21.6173 36.4 20.9264 36.1595 20.1162C35.919 19.3062 35.7988 18.4089 35.7988 17.4238C35.7988 16.4391 35.9389 15.5378 36.2196 14.7195C36.4999 13.9016 36.9049 13.2028 37.434 12.6227C37.9631 12.043 38.6124 11.5945 39.3819 11.2765C40.1514 10.959 41.0329 10.8 42.0271 10.8C42.8767 10.8 43.618 10.9073 44.2515 11.1216C44.8846 11.3362 45.4179 11.634 45.8507 12.0152C46.2836 12.3964 46.6203 12.8532 46.8608 13.3853C47.1013 13.9176 47.2612 14.5014 47.3416 15.1365L43.9509 15.5892C43.8705 14.954 43.6864 14.4418 43.3978 14.0524C43.1092 13.6633 42.6121 13.4686 41.9068 13.4686C41.3936 13.4686 40.969 13.5758 40.6324 13.7903C40.2956 14.0047 40.027 14.2947 39.8268 14.6599C39.6262 15.0255 39.486 15.4425 39.406 15.9108C39.3255 16.3796 39.2857 16.868 39.2857 17.3762C39.2857 17.9004 39.3255 18.4007 39.406 18.8773C39.486 19.3539 39.6223 19.7749 39.8147 20.1401C40.0071 20.5057 40.2716 20.7954 40.6083 21.0097C40.945 21.2242 41.3696 21.3314 41.8828 21.3314C42.5561 21.3314 43.077 21.1408 43.4459 20.7596C43.8145 20.3784 44.031 19.8303 44.0953 19.1155H47.51Z" fill="#21201F"/>
<path fill-rule="evenodd" clip-rule="evenodd" d="M50.0385 6.4H53.3867V12.6151C53.8807 11.9406 54.4546 11.4431 55.1086 11.1216C55.7622 10.8005 56.4478 10.6398 57.1653 10.6398C58.5842 10.6398 59.6364 11.0132 60.3222 11.76C61.0075 12.5067 61.3504 13.6834 61.3504 15.289V23.6H58.0024V15.7468C58.0024 14.8637 57.835 14.2615 57.5002 13.94C57.1653 13.6189 56.7188 13.4582 56.1609 13.4582C55.7304 13.4582 55.3597 13.5227 55.0488 13.651C54.7379 13.7797 54.4468 13.9641 54.1759 14.205C53.9525 14.4302 53.7653 14.6988 53.614 15.012C53.4622 15.3252 53.3867 15.6665 53.3867 16.0358V23.6H50.0385V6.4Z" fill="#21201F"/>
<path fill-rule="evenodd" clip-rule="evenodd" d="M69.9341 21.3314C70.8919 21.3314 71.6062 20.9899 72.0772 20.3068C72.5478 19.624 72.7835 18.6472 72.7835 17.3761C72.7835 16.1055 72.5478 15.1364 72.0772 14.4693C71.6062 13.8021 70.8919 13.4685 69.9341 13.4685C68.9764 13.4685 68.2617 13.8021 67.7911 14.4693C67.32 15.1364 67.0847 16.1055 67.0847 17.3761C67.0847 18.6628 67.3159 19.6438 67.7791 20.3187C68.2419 20.9941 68.9603 21.3314 69.9341 21.3314ZM69.9341 24C67.9228 24 66.3664 23.4281 65.2649 22.2843C64.1634 21.1407 63.6128 19.5049 63.6128 17.3761C63.6128 16.3598 63.7602 15.4425 64.0557 14.6242C64.351 13.8063 64.7741 13.1153 65.3248 12.5513C65.8755 11.9876 66.5419 11.5547 67.3242 11.2527C68.1062 10.9511 68.9764 10.8 69.9341 10.8C70.9076 10.8 71.7857 10.9511 72.568 11.2527C73.35 11.5547 74.0166 11.9876 74.5673 12.5513C75.1181 13.1153 75.5371 13.8063 75.8245 14.6242C76.1118 15.4425 76.2555 16.3598 76.2555 17.3761C76.2555 18.4089 76.1077 19.334 75.8125 20.1519C75.517 20.9702 75.0942 21.665 74.5435 22.2367C73.9927 22.8086 73.3261 23.2457 72.544 23.5472C71.7618 23.8488 70.8919 24 69.9341 24Z" fill="#21201F"/>
<path fill-rule="evenodd" clip-rule="evenodd" d="M84.4399 21.3314C85.3977 21.3314 86.112 20.9899 86.583 20.3068C87.0536 19.624 87.2893 18.6472 87.2893 17.3761C87.2893 16.1055 87.0536 15.1364 86.583 14.4693C86.112 13.8021 85.3977 13.4685 84.4399 13.4685C83.4822 13.4685 82.7676 13.8021 82.297 14.4693C81.8259 15.1364 81.5906 16.1055 81.5906 17.3761C81.5906 18.6628 81.8218 19.6438 82.2849 20.3187C82.7477 20.9941 83.4661 21.3314 84.4399 21.3314ZM84.4399 24C82.4287 24 80.8722 23.4281 79.7707 22.2843C78.6693 21.1407 78.1186 19.5049 78.1186 17.3761C78.1186 16.3598 78.266 15.4425 78.5615 14.6242C78.8568 13.8063 79.28 13.1153 79.8307 12.5513C80.3814 11.9876 81.0477 11.5547 81.83 11.2527C82.612 10.9511 83.4822 10.8 84.4399 10.8C85.4135 10.8 86.2916 10.9511 87.0738 11.2527C87.8559 11.5547 88.5225 11.9876 89.0732 12.5513C89.624 13.1153 90.043 13.8063 90.3304 14.6242C90.6177 15.4425 90.7613 16.3598 90.7613 17.3761C90.7613 18.4089 90.6136 19.334 90.3184 20.1519C90.0228 20.9702 89.6 21.665 89.0493 22.2367C88.4985 22.8086 87.8319 23.2457 87.0499 23.5472C86.2676 23.8488 85.3977 24 84.4399 24Z" fill="#21201F"/>
<path fill-rule="evenodd" clip-rule="evenodd" d="M93.29 23.6004H96.7502V6.40039H93.29V23.6004Z" fill="#21201F"/>
<path fill-rule="evenodd" clip-rule="evenodd" d="M0 0H3.98097L8.12991 12.1653L12.3988 0H16.2359L9.80872 17.2H6.42718L0 0Z" fill="#21201F"/>
<path fill-rule="evenodd" clip-rule="evenodd" d="M3.19434 23.8671H13.0423V20.4004H3.19434V23.8671Z" fill="#21201F"/>
</svg>
