<svg width="97" height="24" viewBox="0 0 97 24" fill="none" xmlns="http://www.w3.org/2000/svg">
<path fill-rule="evenodd" clip-rule="evenodd" d="M23.4359 17.976C23.5155 19.032 23.8539 19.7999 24.4511 20.28C25.0483 20.76 25.9279 21 27.0905 21C27.6477 21 28.1177 20.94 28.4998 20.8199C28.882 20.7001 29.1925 20.5403 29.4314 20.34C29.6702 20.1401 29.8412 19.9043 29.9449 19.632C30.0483 19.3602 30.1002 19.0643 30.1002 18.7441C30.1002 18.2962 29.933 17.8762 29.5986 17.4839C29.2642 17.0921 28.651 16.8083 27.7593 16.632L25.5379 16.224C24.662 16.0642 23.8898 15.8561 23.221 15.6C22.5521 15.3442 21.9908 15.012 21.5369 14.604C21.0831 14.1961 20.7368 13.6961 20.4979 13.104C20.259 12.5122 20.1396 11.808 20.1396 10.992C20.1396 10.176 20.3027 9.45602 20.6292 8.83199C20.9555 8.20795 21.4093 7.68828 21.9908 7.27201C22.5719 6.85611 23.2687 6.53991 24.0808 6.32399C24.893 6.10807 25.7847 6 26.7561 6C27.9982 6 29.0332 6.14402 29.8613 6.43198C30.6892 6.72002 31.3579 7.10027 31.8678 7.57199C32.3772 8.04414 32.7553 8.59198 33.0024 9.21602C33.249 9.83998 33.4122 10.488 33.492 11.16L30.1241 11.5919C29.9487 10.6481 29.6105 9.96828 29.1089 9.55201C28.6072 9.13611 27.8466 8.92798 26.8277 8.92798C26.2224 8.92798 25.725 8.98008 25.3349 9.08393C24.9445 9.18822 24.6302 9.32394 24.3913 9.49197C24.1525 9.66001 23.9854 9.85613 23.8898 10.08C23.7942 10.3043 23.7464 10.536 23.7464 10.7759C23.7464 11.4161 23.9256 11.8961 24.2839 12.216C24.6422 12.5362 25.2512 12.784 26.1112 12.96L28.4521 13.416C30.2991 13.7842 31.6528 14.3801 32.5127 15.204C33.3726 16.0282 33.8026 17.2163 33.8026 18.7681C33.8026 19.5203 33.663 20.2121 33.3846 20.8439C33.1058 21.4763 32.6919 22.0283 32.1425 22.5C31.5931 22.9721 30.9042 23.34 30.0763 23.604C29.2481 23.868 28.2766 24 27.1621 24C24.8371 24 23.0574 23.5001 21.8236 22.5C20.5893 21.5003 19.9246 19.992 19.8291 17.976H23.4359Z" fill="#21201F"/>
<path fill-rule="evenodd" clip-rule="evenodd" d="M47.51 19.1163C47.3815 20.6096 46.8644 21.7969 45.9589 22.6784C45.053 23.56 43.6943 24.0008 41.8828 24.0008C40.8247 24.0008 39.9109 23.8418 39.1414 23.5242C38.3719 23.2066 37.7425 22.7617 37.2537 22.19C36.7645 21.6181 36.4 20.9271 36.1595 20.117C35.919 19.307 35.7988 18.4097 35.7988 17.4246C35.7988 16.4399 35.9389 15.5386 36.2196 14.7202C36.4999 13.9024 36.9049 13.2036 37.434 12.6235C37.963 12.0438 38.6124 11.5953 39.3819 11.2773C40.1514 10.9598 41.0329 10.8008 42.0271 10.8008C42.8767 10.8008 43.618 10.9081 44.2515 11.1224C44.8846 11.3369 45.4179 11.6347 45.8507 12.016C46.2836 12.3972 46.6203 12.854 46.8608 13.386C47.1013 13.9184 47.2612 14.5022 47.3416 15.1373L43.9509 15.59C43.8705 14.9548 43.6864 14.4426 43.3978 14.0532C43.1092 13.6641 42.6121 13.4693 41.9068 13.4693C41.3936 13.4693 40.969 13.5766 40.6324 13.7911C40.2956 14.0055 40.027 14.2955 39.8268 14.6607C39.6262 15.0263 39.4859 15.4433 39.406 15.9116C39.3255 16.3804 39.2857 16.8688 39.2857 17.3769C39.2857 17.9012 39.3255 18.4015 39.406 18.878C39.4859 19.3547 39.6223 19.7756 39.8147 20.1409C40.0071 20.5064 40.2716 20.7961 40.6083 21.0105C40.945 21.2249 41.3696 21.3322 41.8828 21.3322C42.5561 21.3322 43.077 21.1416 43.4459 20.7604C43.8145 20.3791 44.031 19.8311 44.0953 19.1163H47.51Z" fill="#21201F"/>
<path fill-rule="evenodd" clip-rule="evenodd" d="M50.0391 6.39844H53.3872V12.6136C53.8812 11.9391 54.4551 11.4415 55.1091 11.12C55.7627 10.7989 56.4484 10.6382 57.1659 10.6382C58.5847 10.6382 59.637 11.0116 60.3227 11.7584C61.008 12.5052 61.351 13.6818 61.351 15.2875V23.5984H58.0029V15.7453C58.0029 14.8621 57.8356 14.2599 57.5008 13.9385C57.1659 13.6174 56.7193 13.4567 56.1614 13.4567C55.7309 13.4567 55.3603 13.5211 55.0493 13.6494C54.7384 13.7781 54.4474 13.9626 54.1764 14.2035C53.953 14.4286 53.7658 14.6973 53.6145 15.0104C53.4627 15.3236 53.3872 15.665 53.3872 16.0342V23.5984H50.0391V6.39844Z" fill="#21201F"/>
<path fill-rule="evenodd" clip-rule="evenodd" d="M69.9346 21.3322C70.8924 21.3322 71.6067 20.9907 72.0777 20.3076C72.5483 19.6248 72.784 18.648 72.784 17.3769C72.784 16.1063 72.5483 15.1372 72.0777 14.4701C71.6067 13.8029 70.8924 13.4693 69.9346 13.4693C68.9769 13.4693 68.2622 13.8029 67.7916 14.4701C67.3205 15.1372 67.0852 16.1063 67.0852 17.3769C67.0852 18.6636 67.3164 19.6446 67.7795 20.3195C68.2423 20.9948 68.9608 21.3322 69.9346 21.3322ZM69.9346 24.0008C67.9233 24.0008 66.3669 23.4289 65.2654 22.2851C64.1639 21.1415 63.6133 19.5057 63.6133 17.3769C63.6133 16.3606 63.7607 15.4433 64.0562 14.625C64.3515 13.8071 64.7746 13.1161 65.3253 12.5521C65.876 11.9884 66.5423 11.5555 67.3247 11.2535C68.1066 10.9519 68.9769 10.8008 69.9346 10.8008C70.9081 10.8008 71.7862 10.9519 72.5685 11.2535C73.3505 11.5555 74.0171 11.9884 74.5678 12.5521C75.1186 13.1161 75.5376 13.8071 75.825 14.625C76.1123 15.4433 76.256 16.3606 76.256 17.3769C76.256 18.4097 76.1082 19.3348 75.813 20.1527C75.5174 20.971 75.0947 21.6657 74.5439 22.2375C73.9932 22.8093 73.3266 23.2464 72.5445 23.548C71.7623 23.8496 70.8924 24.0008 69.9346 24.0008Z" fill="#21201F"/>
<path fill-rule="evenodd" clip-rule="evenodd" d="M84.4394 21.3322C85.3973 21.3322 86.1116 20.9907 86.5826 20.3076C87.0532 19.6248 87.2889 18.648 87.2889 17.3769C87.2889 16.1063 87.0532 15.1372 86.5826 14.4701C86.1116 13.8029 85.3973 13.4693 84.4394 13.4693C83.4818 13.4693 82.7671 13.8029 82.2965 14.4701C81.8254 15.1372 81.5901 16.1063 81.5901 17.3769C81.5901 18.6636 81.8213 19.6446 82.2844 20.3195C82.7472 20.9948 83.4657 21.3322 84.4394 21.3322ZM84.4394 24.0008C82.4282 24.0008 80.8717 23.4289 79.7702 22.2851C78.6688 21.1415 78.1182 19.5057 78.1182 17.3769C78.1182 16.3606 78.2656 15.4433 78.5611 14.625C78.8563 13.8071 79.2795 13.1161 79.8302 12.5521C80.3809 11.9884 81.0472 11.5555 81.8296 11.2535C82.6115 10.9519 83.4818 10.8008 84.4394 10.8008C85.413 10.8008 86.2911 10.9519 87.0734 11.2535C87.8554 11.5555 88.522 11.9884 89.0727 12.5521C89.6235 13.1161 90.0425 13.8071 90.3299 14.625C90.6172 15.4433 90.7609 16.3606 90.7609 17.3769C90.7609 18.4097 90.6131 19.3348 90.3179 20.1527C90.0223 20.971 89.5995 21.6657 89.0488 22.2375C88.498 22.8093 87.8314 23.2464 87.0494 23.548C86.2672 23.8496 85.3973 24.0008 84.4394 24.0008Z" fill="#21201F"/>
<mask id="mask0" mask-type="alpha" maskUnits="userSpaceOnUse" x="0" y="0" width="97" height="24">
<path fill-rule="evenodd" clip-rule="evenodd" d="M0 24H96.75V0H0V24Z" fill="white"/>
</mask>
<g mask="url(#mask0)">
<path fill-rule="evenodd" clip-rule="evenodd" d="M93.29 23.5984H96.7501V6.39844H93.29V23.5984Z" fill="#21201F"/>
<path fill-rule="evenodd" clip-rule="evenodd" d="M0 0H3.98097L8.12991 12.1653L12.3988 0H16.2359L9.80872 17.2H6.42718L0 0Z" fill="#21201F"/>
<path fill-rule="evenodd" clip-rule="evenodd" d="M3.19434 23.8651H13.0423V20.3984H3.19434V23.8651Z" fill="#21201F"/>
</g>
</svg>
