<svg width="40" height="32" viewBox="0 0 40 32" fill="none" xmlns="http://www.w3.org/2000/svg">
<path fill-rule="evenodd" clip-rule="evenodd" d="M16.8006 0L11.0162 16.2674L5.3944 0H0L8.70892 23H13.291L22 0H16.8006Z" fill="#FBF9F7"/>
<path fill-rule="evenodd" clip-rule="evenodd" d="M25.8361 23.912C25.9444 25.3296 26.4052 26.3605 27.2182 27.0048C28.0311 27.6492 29.2287 27.9714 30.8114 27.9714C31.57 27.9714 32.2098 27.8907 32.7301 27.7296C33.2503 27.5686 33.6731 27.3542 33.9983 27.0854C34.3235 26.817 34.5562 26.5005 34.6975 26.1349C34.8382 25.77 34.9088 25.3728 34.9088 24.943C34.9088 24.342 34.6812 23.7781 34.2259 23.2516C33.7706 22.7255 32.9359 22.3445 31.722 22.1079L28.6978 21.5603C27.5052 21.3458 26.454 21.0664 25.5434 20.7226C24.633 20.3793 23.8688 19.9333 23.2509 19.3857C22.6331 18.8379 22.1615 18.167 21.8363 17.372C21.5111 16.5778 21.3486 15.6323 21.3486 14.537C21.3486 13.4416 21.5706 12.4751 22.0152 11.6375C22.4593 10.7999 23.0771 10.1021 23.8688 9.54343C24.6599 8.98516 25.6085 8.56074 26.7141 8.27086C27.8197 7.98088 29.0336 7.83594 30.3562 7.83594C32.0472 7.83594 33.4562 8.02923 34.5836 8.4158C35.7106 8.80238 36.6211 9.31289 37.3152 9.94606C38.0087 10.5799 38.5235 11.3153 38.8598 12.153C39.1957 12.9906 39.4177 13.8605 39.5265 14.7625L34.9413 15.3425C34.7026 14.0753 34.2422 13.1628 33.5593 12.6039C32.8764 12.0458 31.8408 11.7664 30.4537 11.7664C29.6296 11.7664 28.9523 11.8363 28.4213 11.9757C27.8899 12.1157 27.462 12.2979 27.1369 12.5234C26.8117 12.749 26.584 13.0122 26.454 13.3128C26.3239 13.6138 26.2589 13.9249 26.2589 14.247C26.2589 15.1063 26.5028 15.7506 26.9906 16.18C27.4783 16.61 28.3075 16.9427 29.4781 17.1787L32.6651 17.7909C35.1796 18.2852 37.0225 19.0851 38.1932 20.191C39.3639 21.2974 39.9492 22.8922 39.9492 24.9752C39.9492 25.985 39.7592 26.9137 39.3801 27.7618C39.0006 28.6107 38.4371 29.3516 37.6892 29.9849C36.9412 30.6186 36.0032 31.1125 34.8763 31.4668C33.7488 31.8212 32.4262 31.9984 30.909 31.9984C27.7435 31.9984 25.321 31.3274 23.6411 29.9849C21.9608 28.6429 21.0559 26.6182 20.9258 23.912H25.8361Z" fill="#FBF9F7"/>
<mask id="mask0" mask-type="alpha" maskUnits="userSpaceOnUse" x="0" y="0" width="40" height="33">
<path fill-rule="evenodd" clip-rule="evenodd" d="M0 32.0003H39.949V0.0742188H0V32.0003Z" fill="white"/>
</mask>
<g mask="url(#mask0)">
<path fill-rule="evenodd" clip-rule="evenodd" d="M4.3374 31.983H17.6777V27.4727H4.3374V31.983Z" fill="#FBF9F7"/>
</g>
</svg>
